# xmcd
#
# Track frame offsets:
# 150
# 19234
# 34123
# 46324
# 70682
# 89435
# 108206
# 127323
# 144995
# 155649
# 178389
#
# Disc length: 2550 seconds
#
#
# Revision: 0
# Processed by: cddbd v1.5PL3 Copyright (c) Steve Scherf et al.
# Submitted via: FreeRIP 2.53 
#
DISCID=9a09f40b
DTITLE=Brooks, Garth - Fresh Horses
DYEAR=1900
DGENRE=
TTITLE0=Old Stuff
TTITLE1=Cowboys And Angels
TTITLE2=Fever
TTITLE3=That Ol' Wind
TTITLE4=Rollin'
TTITLE5=The Change
TTITLE6=Beaches Of Cheyenne
TTITLE7=To Make You Feel My Love
TTITLE8=It's Midnight Cinderella
TTITLE9=Ireland
TTITLE10=She's Every Woman
EXTD=
EXTT0=
EXTT1=
EXTT2=
EXTT3=
EXTT4=
EXTT5=
EXTT6=
EXTT7=
EXTT8=
EXTT9=
EXTT10=
PLAYORDER=
